<svg width="26" height="26" viewBox="0 0 26 26" fill="none" xmlns="http://www.w3.org/2000/svg">
<path d="M23.5628 15.19C22.4093 14.5488 20.6622 13.7801 18.89 13.7588C17.933 13.7473 17.017 14.2541 16.499 15.0815C16.0085 15.8657 15.7051 16.5703 15.593 17.1838C15.3541 17.1135 15.0251 16.9999 14.6329 16.8217C13.8638 16.4723 12.6865 15.7954 11.4462 14.555C10.0697 13.1788 9.40073 12.0194 9.08198 11.2891C8.92253 10.9238 8.83265 10.627 8.78208 10.4139C9.40344 10.3072 10.1199 10.0016 10.9197 9.5017C11.7468 8.98425 12.2534 8.06807 12.2419 7.11083C12.2207 5.33967 11.452 3.59216 10.8108 2.43804C10.3186 1.55232 9.3889 1.00133 8.38402 1C8.32228 1 8.26049 1.00061 8.20035 1.00171C5.79977 1.04112 3.64475 2.2064 2.28784 4.19882C1.63985 5.15037 1.21713 6.2517 1.06547 7.38371C0.903912 8.58961 1.0417 9.78728 1.47503 10.9434C2.60118 13.9481 4.40981 16.7092 6.85064 19.15C9.2903 21.5902 12.0515 23.3989 15.0573 24.5257C15.8993 24.8413 16.7751 25.0001 17.6515 25C18.2749 25 18.8988 24.9197 19.5109 24.7585C20.9206 24.3872 22.1796 23.6171 23.1518 22.5315C23.3046 22.361 23.2901 22.0989 23.1196 21.9462C22.949 21.7934 22.6869 21.8079 22.5342 21.9784C21.6706 22.9428 20.5522 23.6268 19.2998 23.9567C17.9941 24.3007 16.6277 24.2289 15.3484 23.7494C12.4541 22.6644 9.79233 20.9197 7.4369 18.5638C5.0803 16.2072 3.33562 13.5454 2.25136 10.6524C1.49437 8.63272 1.75746 6.45056 2.9732 4.66547C3.90331 3.29978 5.25612 2.37288 6.80553 2.0061C8.73986 4.76054 9.18202 8.38511 9.27129 9.41802C8.90661 9.55653 8.58062 9.62777 8.30343 9.62777C8.19201 9.62777 8.08528 9.67265 8.00729 9.75224C7.92931 9.83183 7.88669 9.9395 7.88896 10.0509C7.89078 10.1393 7.96717 12.2489 10.8601 15.1413C13.4418 17.723 15.7993 18.0936 15.8983 18.1081C16.0176 18.1255 16.1384 18.0904 16.2295 18.0116C16.3206 17.9329 16.373 17.8183 16.373 17.698C16.373 17.4204 16.4442 17.0943 16.5827 16.7297C17.6151 16.8189 21.2401 17.2609 23.9949 19.1955C23.8702 19.7193 23.6802 20.224 23.4248 20.7048C23.3174 20.907 23.3942 21.1579 23.5964 21.2653C23.7986 21.3729 24.0496 21.2959 24.1569 21.0938C24.6968 20.0777 24.9803 18.9697 24.9997 17.7974L24.9997 17.7909C25.0002 17.7332 25.0008 17.6749 25.0008 17.6161C24.9994 16.6124 24.4485 15.6828 23.5628 15.19ZM7.70678 1.85891C7.8747 1.84338 8.04405 1.83343 8.215 1.83061C8.27099 1.82956 8.32753 1.82901 8.38347 1.82901C9.08745 1.82995 9.73982 2.21757 10.086 2.84058C10.1103 2.88425 10.1348 2.92913 10.1594 2.97456L9.76204 3.09726C9.54327 3.1648 9.42074 3.39689 9.48828 3.61565C9.54327 3.79368 9.70715 3.90798 9.88424 3.90798C9.92476 3.90798 9.96599 3.90201 10.0067 3.88941L10.5367 3.72575C10.6184 3.90223 10.6984 4.08623 10.775 4.27614L10.3025 4.42217C10.0838 4.48976 9.96129 4.72185 10.0289 4.94061C10.0839 5.11858 10.2478 5.23289 10.4248 5.23289C10.4653 5.23289 10.5065 5.22692 10.5473 5.21431L11.0558 5.05718C11.1171 5.25251 11.1726 5.4517 11.2206 5.65361L10.5707 5.85424C10.3519 5.92178 10.2294 6.15387 10.2969 6.37258C10.3518 6.5506 10.5158 6.66496 10.6929 6.66496C10.7334 6.66496 10.7745 6.65899 10.8153 6.64639L11.369 6.47543C11.3949 6.68989 11.4104 6.90545 11.413 7.12078C11.4211 7.79083 11.0636 8.4338 10.4802 8.79881C10.3404 8.8862 10.204 8.96617 10.0705 9.04018C9.93343 7.70638 9.43671 4.51668 7.70678 1.85891ZM24.1706 17.7832V17.7867C24.1678 17.9575 24.158 18.1267 24.1426 18.2945C21.4846 16.5641 18.2944 16.0674 16.9608 15.9304C17.0347 15.7971 17.1146 15.6608 17.2019 15.5213C17.5674 14.9374 18.2105 14.5807 18.8801 14.5877C19.0698 14.59 19.2597 14.6023 19.4487 14.6228L19.317 14.9441C19.2302 15.1559 19.3315 15.398 19.5434 15.4849C19.5948 15.506 19.648 15.5159 19.7004 15.5159C19.8637 15.5159 20.0184 15.4189 20.0841 15.2585L20.2861 14.7658C20.4981 14.8145 20.7071 14.8715 20.912 14.9349L20.7386 15.358C20.6518 15.5699 20.7531 15.8119 20.9649 15.8988C21.0163 15.9199 21.0696 15.9299 21.122 15.9299C21.2852 15.9299 21.4399 15.8329 21.5056 15.6725L21.694 15.2131C21.8791 15.2871 22.0586 15.3646 22.2312 15.4437L22.0252 15.9461C21.9384 16.1579 22.0398 16.4 22.2516 16.4869C22.3031 16.5079 22.3563 16.5179 22.4087 16.5179C22.5719 16.5179 22.7266 16.4209 22.7924 16.2605L22.9755 15.8138C23.0385 15.8475 23.1001 15.8811 23.1599 15.9144C23.783 16.2611 24.1708 16.9136 24.1717 17.6165C24.1716 17.6724 24.1711 17.728 24.1706 17.7832Z" fill="#ED4E31" stroke="#ED4E31" stroke-width="0.5"/>
</svg>
